<svg width="17" height="18" viewBox="0 0 17 18" fill="none" xmlns="http://www.w3.org/2000/svg">
<g clip-path="url(#clip0_2004_163)">
<path d="M0.750005 18C0.551092 18 0.360325 17.921 0.219672 17.7803C0.0790184 17.6397 0 17.4489 0 17.25V0.749877C2.23134e-05 0.619548 0.0340058 0.491474 0.0986009 0.378279C0.163196 0.265084 0.256173 0.170676 0.368368 0.104358C0.480562 0.0380407 0.608102 0.00210365 0.738415 8.95825e-05C0.868728 -0.00192448 0.997318 0.0300539 1.11151 0.0928725L16.1116 8.34293C16.2292 8.40767 16.3273 8.50279 16.3956 8.61836C16.4639 8.73392 16.4999 8.8657 16.4999 8.99994C16.4999 9.13417 16.4639 9.26595 16.3956 9.38152C16.3273 9.49708 16.2292 9.5922 16.1116 9.65694L1.11151 17.907C1.00077 17.968 0.876418 18 0.750005 18Z" fill="white"/>
</g>
<defs>
<clipPath id="clip0_2004_163">
<rect width="16.5" height="18" fill="white"/>
</clipPath>
</defs>
</svg>
