<svg width="24" height="24" viewBox="0 0 24 24" fill="none" xmlns="http://www.w3.org/2000/svg">
<g clip-path="url(#clip0_201_675)">
<path fill-rule="evenodd" clip-rule="evenodd" d="M11.9633 0.363281C14.1267 0.387969 16.0811 0.919677 17.8266 1.9584C19.5513 2.9764 20.9859 4.41982 21.9934 6.15065C23.0258 7.90663 23.5543 9.87293 23.5789 12.0495C23.5176 15.0277 22.5783 17.5713 20.7609 19.6804C18.9436 21.7895 16.616 23.0943 14.2065 23.5945V15.2447H16.4845L16.9997 11.9635H13.5503V9.81436C13.5311 9.36883 13.672 8.93115 13.9475 8.58046C14.2233 8.22881 14.7091 8.04399 15.4048 8.02599H17.4878V5.15169C17.4579 5.14207 17.1743 5.10405 16.637 5.03761C16.0276 4.96632 15.4149 4.92824 14.8014 4.92354C13.4128 4.92995 12.3147 5.32162 11.5069 6.09857C10.6992 6.8753 10.2865 7.99907 10.269 9.46986V11.9635H7.64404V15.2447H10.269V23.5945C7.31053 23.0943 4.98295 21.7895 3.1656 19.6804C1.34826 17.5713 0.408978 15.0277 0.347656 12.0495C0.372191 9.87283 0.900684 7.90653 1.93314 6.15065C2.94061 4.41982 4.37527 2.9764 6.09994 1.9584C7.84535 0.919877 9.7998 0.388169 11.9633 0.363281Z" fill="black"/>
</g>
<defs>
<clipPath id="clip0_201_675">
<rect width="24" height="24" fill="white"/>
</clipPath>
</defs>
</svg>
