<svg width="119" height="48" viewBox="0 0 119 48" fill="none" xmlns="http://www.w3.org/2000/svg">
<path fill-rule="evenodd" clip-rule="evenodd" d="M5.047 46.481H1.51953V47.1654H21.0522V34.8456H20.4731C20.4731 34.8456 20.4731 41.9532 18.1039 44.2697C16.1032 46.2704 13.9973 46.4283 10.5751 46.4283V23.7367C10.5751 23.7367 12.9443 23.5788 14.1026 24.737C15.8926 26.5271 16.1032 28.8436 16.1032 32.0552H16.735V14.6811H16.1032C16.1032 17.8927 15.9453 20.2092 14.1026 21.9993C12.9443 23.1576 10.5751 22.9996 10.5751 22.9996V1.46629C13.9973 1.46629 15.6294 1.67689 17.63 3.62489C19.9466 5.94144 19.9992 13.049 19.9992 13.049H20.5784V0.78186H1.51953V1.46629H5.047V46.481Z" fill="black"/>
<path fill-rule="evenodd" clip-rule="evenodd" d="M43.2157 1.46629V46.481C46.6379 46.481 48.7439 46.2704 50.7445 44.3224C53.0611 42.0058 53.1137 34.8982 53.1137 34.8982H53.6928V47.218H34.1602V46.5336H37.6876V1.41365H34.1602V0.78186H46.4273V1.46629H43.2157Z" fill="black"/>
<path fill-rule="evenodd" clip-rule="evenodd" d="M74.5946 1.46629V46.481C78.0168 46.481 80.1228 46.2704 82.1234 44.3224C84.44 42.0058 84.4926 34.8982 84.4926 34.8982H85.0717V47.218H65.5391V46.5336H69.0665V1.41365H65.5391V0.78186H77.8062V1.46629H74.5946Z" fill="black"/>
<path fill-rule="evenodd" clip-rule="evenodd" d="M101.234 46.481H97.707V47.1654H117.24V34.8456H116.661C116.661 34.8456 116.661 41.9532 114.291 44.2697C112.291 46.2704 110.185 46.4283 106.763 46.4283V23.7367C106.763 23.7367 109.132 23.5788 110.29 24.737C112.08 26.5271 112.291 28.8436 112.291 32.0552H112.923V14.6811H112.291C112.291 17.8927 112.133 20.2092 110.29 21.9993C109.132 23.1576 106.763 22.9996 106.763 22.9996V1.46629C110.185 1.46629 111.817 1.67689 113.818 3.62489C116.134 5.94144 116.187 13.049 116.187 13.049H116.766V0.78186H97.707V1.46629H101.234V46.481Z" fill="black"/>
</svg>
