<svg width="181" height="48" viewBox="0 0 181 48" fill="none" xmlns="http://www.w3.org/2000/svg">
<path d="M53.2524 1.36975C42.8493 1.44413 34.3398 13.0064 34.3398 23.0913C34.3398 33.704 40.5776 46.6499 53.2524 46.6079C65.9271 46.5658 72.5057 32.6285 72.5057 23.0913C72.5057 12.5567 63.6555 1.29538 53.2524 1.36975ZM53.2524 1.76532C61.9593 1.76532 64.3083 11.3815 64.3083 23.0913C64.3083 38.5421 61.4748 46.1648 53.2524 46.1503C45.0299 46.1358 42.355 39.897 42.355 23.0913C42.355 12.5639 44.5454 1.76532 53.2524 1.76532Z" fill="black"/>
<path d="M75.9416 23.3764C75.8949 11.9014 85.079 1.73663 92.8535 1.23231C95.6617 1.03336 99.2715 2.31935 101.379 3.23544C102.909 3.90066 106.033 2.93778 106.588 1.17126H106.89V16.8025H106.588C106.588 16.1361 103.693 1.62531 92.8535 1.62531C84.8471 1.62531 84.0736 15.7035 84.0736 23.3764C84.0736 31.0494 84.3069 46.2392 93.65 46.2392C98.1761 46.2392 101.526 44.259 102.395 40.253V28.0723H98.5957V27.5534H113.322V28.0723H109.689V45.8805H109.394C109.394 45.8805 108.803 43.311 105.807 43.3195C101.977 43.3305 98.3658 46.6576 93.9633 46.6171C82.3204 46.51 75.9882 34.8515 75.9416 23.3764Z" fill="black"/>
<path d="M5.78048 2.90945H1.19531V2.39404H17.2574V2.90945H13.2278L24.7046 34.0767C28.2934 23.0278 31.0736 14.8605 34.815 2.90945H30.8293V2.39404H39.3101V2.90945H35.448L21.4992 46.3938L5.78048 2.90945Z" fill="black"/>
<path d="M115.57 35.7476L115.497 2.85934H111.133V2.3667H127.212V2.85934H122.85L122.947 38.9196C123.913 43.0488 125.629 46.1819 131.495 46.2286C137.36 46.2752 141.347 42.7589 142.829 37.9535V2.85934H137.837L137.836 2.38121H178.701L178.786 18.1689H178.393C177.635 7.97538 173.702 4.12296 166.823 2.99907C164.456 2.61234 161.973 2.89903 158.834 2.87463V23.0239C161.567 23.2351 164.479 23.0623 166.441 21.3769C168.226 19.8443 168.73 16.3033 168.861 14.8647H169.207V32.4085H168.833C168.725 32.4085 168.581 28.0059 166.441 25.9172C164.287 23.8148 161.544 23.2979 158.834 23.7988V45.3226C162.663 45.3226 165.715 45.647 168.365 44.9203C176.422 42.7114 179.259 35.914 179.237 29.0965H179.685V45.8322H147.632V45.3226H151.256V2.85934H143.426V37.9535C142.538 41.3113 139.295 46.8665 130.982 46.8285C123.252 46.7933 115.586 43.3087 115.57 35.7476Z" fill="black"/>
</svg>
