<svg width="116" height="48" viewBox="0 0 116 48" fill="none" xmlns="http://www.w3.org/2000/svg">
<path fill-rule="evenodd" clip-rule="evenodd" d="M102.794 32.1559C104.157 32.1559 104.869 30.8746 105.153 29.2474H112.598C111.662 40.5763 96.0009 40.6576 94.6382 31.6881V37.5254H83.8382V31.6068C82.9026 37.383 79.5874 38.1763 78.1433 38.1763C76.923 38.1763 73.9535 37.1797 72.8552 34.1288L72.9568 37.4441C72.9772 39.4983 74.2992 40.8 75.6823 40.983V45.7627H63.0924V40.9627C64.1501 40.9424 65.8382 39.8847 65.8585 37.5864V28.9017C65.4721 31.078 63.8653 38.1356 56.1162 38.1356C48.4484 38.1356 46.6992 30.6915 46.3738 29.5932C44.9297 37.7085 39.5399 38.1559 37.1806 38.1152C32.9297 38.0542 30.367 35.1254 30.306 35.0644C27.7433 32.461 27.2552 28.5356 27.3568 24.2847C27.3568 23.4305 27.5806 21.7627 27.6619 20.9491C24.9162 23.8983 22.3535 23.5322 19.323 23.6542H16.7806V28.5153C16.7806 30.4678 17.4924 31.6271 19.6687 31.6475V37.4847H4.69922V31.7695C6.87549 31.7491 7.62803 30.4881 7.62803 28.5356V11.2271C7.62803 10.8203 7.52634 8.13559 4.71956 8.11525V2.44067H20.8687C23.9196 2.44067 26.0755 3.37627 27.5399 4.51525C30.2246 6.6305 30.7738 10.2915 30.9975 12.9763C35.106 9.39661 44.8484 8.60338 46.4958 19.3017C48.2653 11.1458 54.2653 10.5356 55.6687 10.5152C58.1907 10.5152 62.5026 12.0407 63.906 16.1695V11.0847H72.7535V14.3593C73.4043 11.8983 75.5806 10.5559 77.7975 10.5356C79.9331 10.5153 84.306 12.8949 85.4246 21.9051V9.90508C85.4246 8.17627 84.3467 7.28135 82.6179 7.28135V2.50169H92.9094V21.9254C93.845 13.322 98.645 10.5763 102.692 10.5763C106.801 10.5763 109.709 12.8542 111.194 15.783C113.106 19.5254 112.964 23.4915 112.862 26.0542H100.333C100.292 26.5424 100.333 27.3763 100.374 28.1288C100.435 30.2441 101.126 32.1763 102.794 32.1559ZM37.384 32.1559C38.7467 32.1559 39.4585 30.8949 39.7433 29.2678H46.2721C45.9467 27.6407 45.906 27.2949 45.8653 26.0339H34.8823C34.8416 26.522 34.8823 27.3559 34.923 28.1085C35.0246 30.2441 35.7162 32.1763 37.384 32.1559ZM53.3704 24.4068C53.3704 28.7186 54.1433 32.1966 56.0958 32.2169C58.0891 32.2373 58.8213 28.7186 58.8213 24.4068C58.8213 20.0949 58.0484 16.6169 56.0958 16.5966C54.2043 16.5559 53.3704 20.0949 53.3704 24.4068ZM37.3433 16.4339C35.6755 16.4339 34.923 18.4678 34.8213 20.6034C34.7806 21.3356 34.7806 21.3559 34.8213 21.9051H39.7636C39.8043 21.3559 39.8043 21.3356 39.7636 20.6034C39.6619 18.4678 39.0111 16.4339 37.3433 16.4339ZM102.753 16.5966C101.086 16.5966 100.394 18.4678 100.272 20.6034C100.231 21.3356 100.231 21.3559 100.272 21.9051H105.214C105.255 21.3559 105.255 21.3356 105.214 20.6034C105.113 18.4678 104.421 16.5966 102.753 16.5966ZM73.1806 28.3322C73.1806 30.5085 73.7094 32.1559 75.2348 32.1559C76.9433 32.1559 77.9602 29.8576 77.9602 24.4271C77.9602 18.4678 77.045 16.4339 75.4382 16.3729C73.8924 16.3119 73.0992 17.6136 73.1806 20.339V28.3322ZM16.7806 17.1864H18.8755C20.767 17.1254 21.4382 15.9864 21.4382 13.078C21.4382 10.4339 20.5026 9.07118 18.8755 9.07118H16.7806V17.1864Z" fill="black"/>
</svg>
